<mxfile host="app.diagrams.net" agent="Mozilla/5.0 (Macintosh; Intel Mac OS X 10_15_7) AppleWebKit/537.36 (KHTML, like Gecko) Chrome/135.0.0.0 Safari/537.36" version="26.2.14">
  <diagram name="第 1 页" id="JanZvm9GmfoyH5EoVBpL">
    <mxGraphModel dx="1653" dy="920" grid="1" gridSize="10" guides="1" tooltips="1" connect="1" arrows="1" fold="1" page="1" pageScale="1" pageWidth="827" pageHeight="1169" math="0" shadow="0">
      <root>
        <mxCell id="0" />
        <mxCell id="1" parent="0" />
        <mxCell id="R6lNFjQ6ufHweTg9IIqP-63" value="&lt;span style=&quot;color: rgba(0, 0, 0, 0); font-family: monospace; font-size: 0px; text-align: start; text-wrap-mode: nowrap;&quot;&gt;%3CmxGraphModel%3E%3Croot%3E%3CmxCell%20id%3D%220%22%2F%3E%3CmxCell%20id%3D%221%22%20parent%3D%220%22%2F%3E%3CmxCell%20id%3D%222%22%20value%3D%22%22%20style%3D%22rounded%3D1%3BwhiteSpace%3Dwrap%3Bhtml%3D1%3B%22%20vertex%3D%221%22%20parent%3D%221%22%3E%3CmxGeometry%20x%3D%22373%22%20y%3D%22790%22%20width%3D%22467%22%20height%3D%22340%22%20as%3D%22geometry%22%2F%3E%3C%2FmxCell%3E%3C%2Froot%3E%3C%2FmxGraphModel%3E&lt;/span&gt;" style="rounded=1;whiteSpace=wrap;html=1;" vertex="1" parent="1">
          <mxGeometry x="71.5" y="1240" width="247" height="100" as="geometry" />
        </mxCell>
        <mxCell id="R6lNFjQ6ufHweTg9IIqP-62" value="&lt;span style=&quot;color: rgba(0, 0, 0, 0); font-family: monospace; font-size: 0px; text-align: start; text-wrap-mode: nowrap;&quot;&gt;%3CmxGraphModel%3E%3Croot%3E%3CmxCell%20id%3D%220%22%2F%3E%3CmxCell%20id%3D%221%22%20parent%3D%220%22%2F%3E%3CmxCell%20id%3D%222%22%20value%3D%22%22%20style%3D%22rounded%3D1%3BwhiteSpace%3Dwrap%3Bhtml%3D1%3B%22%20vertex%3D%221%22%20parent%3D%221%22%3E%3CmxGeometry%20x%3D%22373%22%20y%3D%22790%22%20width%3D%22467%22%20height%3D%22340%22%20as%3D%22geometry%22%2F%3E%3C%2FmxCell%3E%3C%2Froot%3E%3C%2FmxGraphModel%3E&lt;/span&gt;" style="rounded=1;whiteSpace=wrap;html=1;" vertex="1" parent="1">
          <mxGeometry x="36.5" y="1430" width="633.5" height="120" as="geometry" />
        </mxCell>
        <mxCell id="R6lNFjQ6ufHweTg9IIqP-61" value="&lt;span style=&quot;color: rgba(0, 0, 0, 0); font-family: monospace; font-size: 0px; text-align: start; text-wrap-mode: nowrap;&quot;&gt;%3CmxGraphModel%3E%3Croot%3E%3CmxCell%20id%3D%220%22%2F%3E%3CmxCell%20id%3D%221%22%20parent%3D%220%22%2F%3E%3CmxCell%20id%3D%222%22%20value%3D%22%22%20style%3D%22rounded%3D1%3BwhiteSpace%3Dwrap%3Bhtml%3D1%3B%22%20vertex%3D%221%22%20parent%3D%221%22%3E%3CmxGeometry%20x%3D%22373%22%20y%3D%22790%22%20width%3D%22467%22%20height%3D%22340%22%20as%3D%22geometry%22%2F%3E%3C%2FmxCell%3E%3C%2Froot%3E%3C%2FmxGraphModel%3E&lt;/span&gt;" style="rounded=1;whiteSpace=wrap;html=1;" vertex="1" parent="1">
          <mxGeometry x="190" y="1585" width="700" height="125" as="geometry" />
        </mxCell>
        <mxCell id="R6lNFjQ6ufHweTg9IIqP-60" value="&lt;span style=&quot;color: rgba(0, 0, 0, 0); font-family: monospace; font-size: 0px; text-align: start; text-wrap-mode: nowrap;&quot;&gt;%3CmxGraphModel%3E%3Croot%3E%3CmxCell%20id%3D%220%22%2F%3E%3CmxCell%20id%3D%221%22%20parent%3D%220%22%2F%3E%3CmxCell%20id%3D%222%22%20value%3D%22%22%20style%3D%22rounded%3D1%3BwhiteSpace%3Dwrap%3Bhtml%3D1%3B%22%20vertex%3D%221%22%20parent%3D%221%22%3E%3CmxGeometry%20x%3D%22373%22%20y%3D%22790%22%20width%3D%22467%22%20height%3D%22340%22%20as%3D%22geometry%22%2F%3E%3C%2FmxCell%3E%3C%2Froot%3E%3C%2FmxGraphModel%3E&lt;/span&gt;" style="rounded=1;whiteSpace=wrap;html=1;" vertex="1" parent="1">
          <mxGeometry x="740" y="1450" width="183" height="130" as="geometry" />
        </mxCell>
        <mxCell id="R6lNFjQ6ufHweTg9IIqP-58" value="&lt;span style=&quot;color: rgba(0, 0, 0, 0); font-family: monospace; font-size: 0px; text-align: start; text-wrap-mode: nowrap;&quot;&gt;%3CmxGraphModel%3E%3Croot%3E%3CmxCell%20id%3D%220%22%2F%3E%3CmxCell%20id%3D%221%22%20parent%3D%220%22%2F%3E%3CmxCell%20id%3D%222%22%20value%3D%22%22%20style%3D%22rounded%3D1%3BwhiteSpace%3Dwrap%3Bhtml%3D1%3B%22%20vertex%3D%221%22%20parent%3D%221%22%3E%3CmxGeometry%20x%3D%22373%22%20y%3D%22790%22%20width%3D%22467%22%20height%3D%22340%22%20as%3D%22geometry%22%2F%3E%3C%2FmxCell%3E%3C%2Froot%3E%3C%2FmxGraphModel%3E&lt;/span&gt;" style="rounded=1;whiteSpace=wrap;html=1;" vertex="1" parent="1">
          <mxGeometry x="400" y="1290" width="430" height="90" as="geometry" />
        </mxCell>
        <mxCell id="R6lNFjQ6ufHweTg9IIqP-57" value="&lt;span style=&quot;color: rgba(0, 0, 0, 0); font-family: monospace; font-size: 0px; text-align: start; text-wrap-mode: nowrap;&quot;&gt;%3CmxGraphModel%3E%3Croot%3E%3CmxCell%20id%3D%220%22%2F%3E%3CmxCell%20id%3D%221%22%20parent%3D%220%22%2F%3E%3CmxCell%20id%3D%222%22%20value%3D%22%22%20style%3D%22rounded%3D1%3BwhiteSpace%3Dwrap%3Bhtml%3D1%3B%22%20vertex%3D%221%22%20parent%3D%221%22%3E%3CmxGeometry%20x%3D%22373%22%20y%3D%22790%22%20width%3D%22467%22%20height%3D%22340%22%20as%3D%22geometry%22%2F%3E%3C%2FmxCell%3E%3C%2Froot%3E%3C%2FmxGraphModel%3E&lt;/span&gt;" style="rounded=1;whiteSpace=wrap;html=1;" vertex="1" parent="1">
          <mxGeometry x="361.5" y="1120" width="490" height="115" as="geometry" />
        </mxCell>
        <mxCell id="R6lNFjQ6ufHweTg9IIqP-71" value="" style="edgeStyle=orthogonalEdgeStyle;rounded=0;orthogonalLoop=1;jettySize=auto;html=1;" edge="1" parent="1" source="R6lNFjQ6ufHweTg9IIqP-56" target="R6lNFjQ6ufHweTg9IIqP-27">
          <mxGeometry relative="1" as="geometry" />
        </mxCell>
        <mxCell id="R6lNFjQ6ufHweTg9IIqP-56" value="" style="rounded=1;whiteSpace=wrap;html=1;" vertex="1" parent="1">
          <mxGeometry x="373" y="790" width="467" height="300" as="geometry" />
        </mxCell>
        <mxCell id="R6lNFjQ6ufHweTg9IIqP-67" value="" style="edgeStyle=orthogonalEdgeStyle;rounded=0;orthogonalLoop=1;jettySize=auto;html=1;" edge="1" parent="1" source="R6lNFjQ6ufHweTg9IIqP-52" target="R6lNFjQ6ufHweTg9IIqP-23">
          <mxGeometry relative="1" as="geometry" />
        </mxCell>
        <mxCell id="R6lNFjQ6ufHweTg9IIqP-52" value="" style="rounded=1;whiteSpace=wrap;html=1;" vertex="1" parent="1">
          <mxGeometry x="340.75" y="670" width="531.5" height="90" as="geometry" />
        </mxCell>
        <mxCell id="R6lNFjQ6ufHweTg9IIqP-49" value="" style="rounded=1;whiteSpace=wrap;html=1;" vertex="1" parent="1">
          <mxGeometry x="340" y="1714" width="340" height="79" as="geometry" />
        </mxCell>
        <mxCell id="R6lNFjQ6ufHweTg9IIqP-1" value="IM Clients" style="rounded=0;whiteSpace=wrap;html=1;" vertex="1" parent="1">
          <mxGeometry x="120" y="300" width="120" height="60" as="geometry" />
        </mxCell>
        <mxCell id="R6lNFjQ6ufHweTg9IIqP-2" value="IM Gateway API" style="rounded=0;whiteSpace=wrap;html=1;" vertex="1" parent="1">
          <mxGeometry x="120" y="380" width="120" height="60" as="geometry" />
        </mxCell>
        <mxCell id="R6lNFjQ6ufHweTg9IIqP-3" value="Message Router" style="rounded=0;whiteSpace=wrap;html=1;" vertex="1" parent="1">
          <mxGeometry x="120" y="450" width="120" height="60" as="geometry" />
        </mxCell>
        <mxCell id="R6lNFjQ6ufHweTg9IIqP-4" value="Auth &amp;amp; User Manager" style="rounded=0;whiteSpace=wrap;html=1;" vertex="1" parent="1">
          <mxGeometry x="120" y="525" width="120" height="60" as="geometry" />
        </mxCell>
        <mxCell id="R6lNFjQ6ufHweTg9IIqP-5" value="Workflow Engine" style="rounded=0;whiteSpace=wrap;html=1;" vertex="1" parent="1">
          <mxGeometry x="120" y="600" width="120" height="60" as="geometry" />
        </mxCell>
        <mxCell id="R6lNFjQ6ufHweTg9IIqP-6" value="LLM API" style="rounded=0;whiteSpace=wrap;html=1;" vertex="1" parent="1">
          <mxGeometry x="50" y="670" width="120" height="60" as="geometry" />
        </mxCell>
        <mxCell id="R6lNFjQ6ufHweTg9IIqP-7" value="Ollama" style="rounded=0;whiteSpace=wrap;html=1;" vertex="1" parent="1">
          <mxGeometry x="190" y="670" width="120" height="60" as="geometry" />
        </mxCell>
        <mxCell id="R6lNFjQ6ufHweTg9IIqP-8" value="消息队列 kafka/Rabbit MQ" style="rounded=0;whiteSpace=wrap;html=1;" vertex="1" parent="1">
          <mxGeometry x="516.5" y="1005" width="180" height="60" as="geometry" />
        </mxCell>
        <mxCell id="R6lNFjQ6ufHweTg9IIqP-9" value="Output Formatter" style="rounded=0;whiteSpace=wrap;html=1;" vertex="1" parent="1">
          <mxGeometry x="120" y="740" width="120" height="60" as="geometry" />
        </mxCell>
        <mxCell id="R6lNFjQ6ufHweTg9IIqP-10" value="IM Response Sender" style="rounded=0;whiteSpace=wrap;html=1;" vertex="1" parent="1">
          <mxGeometry x="120" y="810" width="120" height="60" as="geometry" />
        </mxCell>
        <mxCell id="R6lNFjQ6ufHweTg9IIqP-11" value="Scheduled Tasks" style="rounded=0;whiteSpace=wrap;html=1;" vertex="1" parent="1">
          <mxGeometry x="120" y="880" width="120" height="60" as="geometry" />
        </mxCell>
        <mxCell id="R6lNFjQ6ufHweTg9IIqP-12" value="Document Upload API" style="rounded=0;whiteSpace=wrap;html=1;" vertex="1" parent="1">
          <mxGeometry x="120" y="950" width="150" height="50" as="geometry" />
        </mxCell>
        <mxCell id="R6lNFjQ6ufHweTg9IIqP-13" value="Knowledge Base Sync" style="rounded=0;whiteSpace=wrap;html=1;" vertex="1" parent="1">
          <mxGeometry x="120" y="1010" width="150" height="50" as="geometry" />
        </mxCell>
        <mxCell id="R6lNFjQ6ufHweTg9IIqP-14" value="Logging &amp;amp; Monitoring&amp;nbsp;" style="rounded=0;whiteSpace=wrap;html=1;" vertex="1" parent="1">
          <mxGeometry x="120" y="1070" width="150" height="50" as="geometry" />
        </mxCell>
        <mxCell id="R6lNFjQ6ufHweTg9IIqP-16" value="微信" style="rounded=0;whiteSpace=wrap;html=1;" vertex="1" parent="1">
          <mxGeometry x="353.75" y="700" width="55" height="40" as="geometry" />
        </mxCell>
        <mxCell id="R6lNFjQ6ufHweTg9IIqP-18" value="QQ" style="rounded=0;whiteSpace=wrap;html=1;" vertex="1" parent="1">
          <mxGeometry x="423.75" y="700" width="50" height="40" as="geometry" />
        </mxCell>
        <mxCell id="R6lNFjQ6ufHweTg9IIqP-19" value="钉钉" style="rounded=0;whiteSpace=wrap;html=1;" vertex="1" parent="1">
          <mxGeometry x="483.75" y="700" width="60" height="40" as="geometry" />
        </mxCell>
        <mxCell id="R6lNFjQ6ufHweTg9IIqP-20" value="飞书" style="rounded=0;whiteSpace=wrap;html=1;" vertex="1" parent="1">
          <mxGeometry x="553.75" y="700" width="50" height="40" as="geometry" />
        </mxCell>
        <mxCell id="R6lNFjQ6ufHweTg9IIqP-21" value="WhatsApp via Twilio" style="rounded=0;whiteSpace=wrap;html=1;" vertex="1" parent="1">
          <mxGeometry x="613.75" y="700" width="120" height="40" as="geometry" />
        </mxCell>
        <mxCell id="R6lNFjQ6ufHweTg9IIqP-22" value="Telegram Bot API&lt;span style=&quot;color: rgba(0, 0, 0, 0); font-family: monospace; font-size: 0px; text-align: start; text-wrap-mode: nowrap;&quot;&gt;%3CmxGraphModel%3E%3Croot%3E%3CmxCell%20id%3D%220%22%2F%3E%3CmxCell%20id%3D%221%22%20parent%3D%220%22%2F%3E%3CmxCell%20id%3D%222%22%20value%3D%22WhatsApp%20via%20Twilio%22%20style%3D%22rounded%3D0%3BwhiteSpace%3Dwrap%3Bhtml%3D1%3B%22%20vertex%3D%221%22%20parent%3D%221%22%3E%3CmxGeometry%20x%3D%22480%22%20y%3D%22490%22%20width%3D%22120%22%20height%3D%2260%22%20as%3D%22geometry%22%2F%3E%3C%2FmxCell%3E%3C%2Froot%3E%3C%2FmxGraphModel%3E&lt;/span&gt;" style="rounded=0;whiteSpace=wrap;html=1;" vertex="1" parent="1">
          <mxGeometry x="740.75" y="700" width="120" height="40" as="geometry" />
        </mxCell>
        <mxCell id="R6lNFjQ6ufHweTg9IIqP-65" value="" style="edgeStyle=orthogonalEdgeStyle;rounded=0;orthogonalLoop=1;jettySize=auto;html=1;" edge="1" parent="1" source="R6lNFjQ6ufHweTg9IIqP-23" target="R6lNFjQ6ufHweTg9IIqP-24">
          <mxGeometry relative="1" as="geometry" />
        </mxCell>
        <mxCell id="R6lNFjQ6ufHweTg9IIqP-23" value="消息标准化解析" style="rounded=0;whiteSpace=wrap;html=1;" vertex="1" parent="1">
          <mxGeometry x="546.5" y="830" width="120" height="40" as="geometry" />
        </mxCell>
        <mxCell id="R6lNFjQ6ufHweTg9IIqP-66" value="" style="edgeStyle=orthogonalEdgeStyle;rounded=0;orthogonalLoop=1;jettySize=auto;html=1;" edge="1" parent="1" source="R6lNFjQ6ufHweTg9IIqP-24" target="R6lNFjQ6ufHweTg9IIqP-8">
          <mxGeometry relative="1" as="geometry" />
        </mxCell>
        <mxCell id="R6lNFjQ6ufHweTg9IIqP-24" value="路由引擎" style="rounded=0;whiteSpace=wrap;html=1;" vertex="1" parent="1">
          <mxGeometry x="551.5" y="910" width="110" height="50" as="geometry" />
        </mxCell>
        <mxCell id="R6lNFjQ6ufHweTg9IIqP-26" value="n8n-自动化编排" style="rounded=0;whiteSpace=wrap;html=1;" vertex="1" parent="1">
          <mxGeometry x="410" y="1145" width="120" height="60" as="geometry" />
        </mxCell>
        <mxCell id="R6lNFjQ6ufHweTg9IIqP-27" value="Dify-Agent调度" style="rounded=0;whiteSpace=wrap;html=1;" vertex="1" parent="1">
          <mxGeometry x="546.5" y="1145" width="120" height="60" as="geometry" />
        </mxCell>
        <mxCell id="R6lNFjQ6ufHweTg9IIqP-28" value="kirara AI-对话理解" style="rounded=0;whiteSpace=wrap;html=1;" vertex="1" parent="1">
          <mxGeometry x="681.5" y="1144" width="120" height="60" as="geometry" />
        </mxCell>
        <mxCell id="R6lNFjQ6ufHweTg9IIqP-29" value="Dify-增强检索" style="rounded=0;whiteSpace=wrap;html=1;" vertex="1" parent="1">
          <mxGeometry x="638" y="1310" width="110" height="50" as="geometry" />
        </mxCell>
        <mxCell id="R6lNFjQ6ufHweTg9IIqP-30" value="RAGFlow-向量数据库" style="rounded=0;whiteSpace=wrap;html=1;" vertex="1" parent="1">
          <mxGeometry x="456" y="1310" width="150" height="50" as="geometry" />
        </mxCell>
        <mxCell id="R6lNFjQ6ufHweTg9IIqP-32" value="RBAC模型" style="rounded=0;whiteSpace=wrap;html=1;" vertex="1" parent="1">
          <mxGeometry x="90" y="1275" width="110" height="50" as="geometry" />
        </mxCell>
        <mxCell id="R6lNFjQ6ufHweTg9IIqP-33" value="自动禁言/踢人" style="rounded=0;whiteSpace=wrap;html=1;" vertex="1" parent="1">
          <mxGeometry x="73" y="1460" width="110" height="50" as="geometry" />
        </mxCell>
        <mxCell id="R6lNFjQ6ufHweTg9IIqP-34" value="多租户隔离" style="rounded=0;whiteSpace=wrap;html=1;" vertex="1" parent="1">
          <mxGeometry x="210" y="1275" width="100" height="50" as="geometry" />
        </mxCell>
        <mxCell id="R6lNFjQ6ufHweTg9IIqP-35" value="权限控制" style="rounded=0;whiteSpace=wrap;html=1;" vertex="1" parent="1">
          <mxGeometry x="158" y="1355" width="80" height="40" as="geometry" />
        </mxCell>
        <mxCell id="R6lNFjQ6ufHweTg9IIqP-36" value="自动邀请机制" style="rounded=0;whiteSpace=wrap;html=1;" vertex="1" parent="1">
          <mxGeometry x="201" y="1460" width="84" height="50" as="geometry" />
        </mxCell>
        <mxCell id="R6lNFjQ6ufHweTg9IIqP-37" value="敏感词过滤" style="rounded=0;whiteSpace=wrap;html=1;" vertex="1" parent="1">
          <mxGeometry x="303" y="1460" width="90" height="50" as="geometry" />
        </mxCell>
        <mxCell id="R6lNFjQ6ufHweTg9IIqP-38" value="入群欢迎语" style="rounded=0;whiteSpace=wrap;html=1;" vertex="1" parent="1">
          <mxGeometry x="403" y="1460" width="100" height="50" as="geometry" />
        </mxCell>
        <mxCell id="R6lNFjQ6ufHweTg9IIqP-39" value="趋势分析/词云" style="rounded=0;whiteSpace=wrap;html=1;" vertex="1" parent="1">
          <mxGeometry x="513" y="1460" width="120" height="50" as="geometry" />
        </mxCell>
        <mxCell id="R6lNFjQ6ufHweTg9IIqP-40" value="自研中间件" style="rounded=0;whiteSpace=wrap;html=1;" vertex="1" parent="1">
          <mxGeometry x="790" y="1470" width="90" height="40" as="geometry" />
        </mxCell>
        <mxCell id="R6lNFjQ6ufHweTg9IIqP-41" value="调用链路分析" style="rounded=0;whiteSpace=wrap;html=1;" vertex="1" parent="1">
          <mxGeometry x="790" y="1530" width="90" height="40" as="geometry" />
        </mxCell>
        <mxCell id="R6lNFjQ6ufHweTg9IIqP-42" value="Token使用跟踪" style="rounded=0;whiteSpace=wrap;html=1;" vertex="1" parent="1">
          <mxGeometry x="640" y="1620" width="180" height="60" as="geometry" />
        </mxCell>
        <mxCell id="R6lNFjQ6ufHweTg9IIqP-43" value="A/B Test 引擎" style="rounded=0;whiteSpace=wrap;html=1;" vertex="1" parent="1">
          <mxGeometry x="430" y="1620" width="180" height="60" as="geometry" />
        </mxCell>
        <mxCell id="R6lNFjQ6ufHweTg9IIqP-44" value="ECharts图表" style="rounded=0;whiteSpace=wrap;html=1;" vertex="1" parent="1">
          <mxGeometry x="230" y="1620" width="180" height="60" as="geometry" />
        </mxCell>
        <mxCell id="R6lNFjQ6ufHweTg9IIqP-45" value="策略执行引擎" style="rounded=0;whiteSpace=wrap;html=1;" vertex="1" parent="1">
          <mxGeometry x="360" y="1740" width="100" height="40" as="geometry" />
        </mxCell>
        <mxCell id="R6lNFjQ6ufHweTg9IIqP-46" value="实验对照组" style="rounded=0;whiteSpace=wrap;html=1;" vertex="1" parent="1">
          <mxGeometry x="470" y="1740" width="80" height="40" as="geometry" />
        </mxCell>
        <mxCell id="R6lNFjQ6ufHweTg9IIqP-47" value="结果报告生成" style="rounded=0;whiteSpace=wrap;html=1;" vertex="1" parent="1">
          <mxGeometry x="560" y="1740" width="100" height="40" as="geometry" />
        </mxCell>
        <mxCell id="R6lNFjQ6ufHweTg9IIqP-50" value="A/B 测试与策略优化" style="text;strokeColor=none;align=center;fillColor=none;html=1;verticalAlign=middle;whiteSpace=wrap;rounded=0;" vertex="1" parent="1">
          <mxGeometry x="440" y="1709" width="166" height="31" as="geometry" />
        </mxCell>
        <mxCell id="R6lNFjQ6ufHweTg9IIqP-51" value="Text" style="text;html=1;align=center;verticalAlign=middle;resizable=0;points=[];autosize=1;strokeColor=none;fillColor=none;" vertex="1" parent="1">
          <mxGeometry x="60" y="1700" width="50" height="30" as="geometry" />
        </mxCell>
        <mxCell id="R6lNFjQ6ufHweTg9IIqP-53" value="IM Layer" style="text;strokeColor=none;align=center;fillColor=none;html=1;verticalAlign=middle;whiteSpace=wrap;rounded=0;" vertex="1" parent="1">
          <mxGeometry x="580.75" y="670" width="60" height="30" as="geometry" />
        </mxCell>
        <mxCell id="R6lNFjQ6ufHweTg9IIqP-68" style="edgeStyle=orthogonalEdgeStyle;rounded=0;orthogonalLoop=1;jettySize=auto;html=1;exitX=0.5;exitY=1;exitDx=0;exitDy=0;" edge="1" parent="1" source="R6lNFjQ6ufHweTg9IIqP-56" target="R6lNFjQ6ufHweTg9IIqP-56">
          <mxGeometry relative="1" as="geometry" />
        </mxCell>
        <mxCell id="R6lNFjQ6ufHweTg9IIqP-69" value="Message Router" style="text;strokeColor=none;align=center;fillColor=none;html=1;verticalAlign=middle;whiteSpace=wrap;rounded=0;" vertex="1" parent="1">
          <mxGeometry x="414" y="800" width="110" height="30" as="geometry" />
        </mxCell>
        <mxCell id="R6lNFjQ6ufHweTg9IIqP-70" value="AI Workflow Engine" style="text;strokeColor=none;align=center;fillColor=none;html=1;verticalAlign=middle;whiteSpace=wrap;rounded=0;" vertex="1" parent="1">
          <mxGeometry x="720" y="1205" width="110" height="30" as="geometry" />
        </mxCell>
        <mxCell id="R6lNFjQ6ufHweTg9IIqP-72" value="Access Control" style="text;strokeColor=none;align=center;fillColor=none;html=1;verticalAlign=middle;whiteSpace=wrap;rounded=0;" vertex="1" parent="1">
          <mxGeometry x="140" y="1245" width="110" height="30" as="geometry" />
        </mxCell>
        <mxCell id="R6lNFjQ6ufHweTg9IIqP-73" value="Knowledge Base Layer" style="text;strokeColor=none;align=center;fillColor=none;html=1;verticalAlign=middle;whiteSpace=wrap;rounded=0;" vertex="1" parent="1">
          <mxGeometry x="760" y="1320" width="60" height="30" as="geometry" />
        </mxCell>
        <mxCell id="R6lNFjQ6ufHweTg9IIqP-74" value="&lt;h3 style=&quot;--tw-border-spacing-x: 0; --tw-border-spacing-y: 0; --tw-translate-x: 0; --tw-translate-y: 0; --tw-rotate: 0; --tw-skew-x: 0; --tw-skew-y: 0; --tw-scale-x: 1; --tw-scale-y: 1; --tw-pan-x: ; --tw-pan-y: ; --tw-pinch-zoom: ; --tw-scroll-snap-strictness: proximity; --tw-gradient-from-position: ; --tw-gradient-via-position: ; --tw-gradient-to-position: ; --tw-ordinal: ; --tw-slashed-zero: ; --tw-numeric-figure: ; --tw-numeric-spacing: ; --tw-numeric-fraction: ; --tw-ring-inset: ; --tw-ring-offset-width: 0px; --tw-ring-offset-color: #fff; --tw-ring-color: rgb(59 130 246 / .5); --tw-ring-offset-shadow: 0 0 #0000; --tw-ring-shadow: 0 0 #0000; --tw-shadow: 0 0 #0000; --tw-shadow-colored: 0 0 #0000; --tw-blur: ; --tw-brightness: ; --tw-contrast: ; --tw-grayscale: ; --tw-hue-rotate: ; --tw-invert: ; --tw-saturate: ; --tw-sepia: ; --tw-drop-shadow: ; --tw-backdrop-blur: ; --tw-backdrop-brightness: ; --tw-backdrop-contrast: ; --tw-backdrop-grayscale: ; --tw-backdrop-hue-rotate: ; --tw-backdrop-invert: ; --tw-backdrop-opacity: ; --tw-backdrop-saturate: ; --tw-backdrop-sepia: ; --tw-contain-size: ; --tw-contain-layout: ; --tw-contain-paint: ; --tw-contain-style: ; box-sizing: border-box; border-width: 0px; border-style: solid; border-color: rgb(227, 227, 227); font-size: 18px; margin: 12px 0px; unicode-bidi: plaintext; color: rgb(44, 44, 54); line-height: 1.78; letter-spacing: 0em; font-family: system-ui, ui-sans-serif, -apple-system, &amp;quot;system-ui&amp;quot;, sans-serif, Inter, NotoSansHans; text-align: start; white-space-collapse: preserve-breaks; background-color: rgb(255, 255, 255);&quot; data-spm-anchor-id=&quot;a2ty_o01.29997173.0.i3.44ba5171WjYdj4&quot;&gt;Community Ops Module&lt;/h3&gt;" style="text;strokeColor=none;align=center;fillColor=none;html=1;verticalAlign=middle;whiteSpace=wrap;rounded=0;" vertex="1" parent="1">
          <mxGeometry x="872.25" y="1380" width="60" height="30" as="geometry" />
        </mxCell>
      </root>
    </mxGraphModel>
  </diagram>
</mxfile>
